<svg width="19" height="20" viewBox="0 0 19 20" fill="none" xmlns="http://www.w3.org/2000/svg">
<path fill-rule="evenodd" clip-rule="evenodd" d="M16.2148 5.20104C16.2148 5.20104 16.4014 4.64873 16.6948 4.48108C17.0203 4.29509 17.3451 4.26966 17.6547 4.48108C17.9494 4.68234 18.0357 4.96477 18.0147 5.32103C17.9999 5.57294 17.7747 5.92099 17.7747 5.92099C17.7747 5.92099 13.1008 13.7501 10.0952 18.7602L9.73519 19.3602C9.73519 19.3602 9.46478 19.6002 9.25522 19.6002C9.04565 19.6002 8.89533 19.4802 8.77524 19.3602C8.65516 19.2402 8.41527 18.7602 8.41527 18.7602C8.41527 18.7602 1.09551 6.88093 0.975707 6.40097C0.855901 5.92101 0.863921 5.61099 1.0957 5.20104C1.32633 4.79312 2.05564 4.48108 2.05564 4.48108H4.21552C4.21552 4.48108 5.10853 2.0823 6.37539 1.24127C7.3514 0.593325 8.08378 0.414288 9.25522 0.40132C9.91788 0.393984 10.3259 0.407005 10.9351 0.641306C11.5443 0.875607 11.9135 1.13973 12.375 1.60125C12.855 2.08122 13.335 2.80118 13.335 2.80118C13.4835 3.08978 13.455 3.28115 13.335 3.40114C13.215 3.52114 12.975 3.52114 12.615 3.28115C12.5053 3.20799 12.3607 3.06564 12.186 2.89358C11.7875 2.5012 11.2322 1.95432 10.5751 1.72124C10.0814 1.54608 9.77912 1.47873 9.25522 1.48126C8.36612 1.48555 7.81141 1.67418 7.09535 2.20121C6.24725 2.82543 5.65543 4.48108 5.65543 4.48108H12.375C12.9751 4.48108 13.7008 4.86616 14.0549 5.56102C14.3679 6.17509 14.2394 6.66198 14.0653 7.32148C14.0619 7.33455 14.0584 7.3477 14.0549 7.36091C13.7335 8.58012 12.9843 9.12568 11.8951 9.76077C10.9719 10.299 10.3237 10.4936 9.25522 10.4807C8.23185 10.4684 7.61981 10.2757 6.73537 9.76077C5.81905 9.22724 5.34021 8.76226 4.81548 7.84088C4.62462 7.50575 4.49801 7.02681 4.40263 6.666C4.32572 6.37509 4.26912 6.16098 4.21552 6.16098C4.18998 6.16098 4.12103 6.15555 4.02714 6.14816C3.67952 6.12079 2.98999 6.0665 2.89559 6.16098C2.77569 6.28098 8.77524 18.4003 9.25522 18.4003C9.73519 18.4002 16.2148 5.20104 16.2148 5.20104ZM12.255 6.16098H5.65543C5.65543 6.16098 6.04655 7.40316 6.61538 7.96087C7.39867 8.72885 8.1588 8.95562 9.25522 8.92082C10.2641 8.88879 10.9117 8.64377 11.6551 7.96087C12.1528 7.50365 12.6875 6.88093 12.615 6.52096C12.5425 6.16099 12.255 6.16098 12.255 6.16098Z" fill="white"/>
<path d="M10.0952 18.7602C13.1008 13.7501 17.7747 5.92099 17.7747 5.92099C17.7747 5.92099 17.9999 5.57294 18.0147 5.32103C18.0357 4.96477 17.9494 4.68234 17.6547 4.48108C17.3451 4.26966 17.0203 4.29509 16.6948 4.48108C16.4014 4.64873 16.2148 5.20104 16.2148 5.20104C16.2148 5.20104 9.73519 18.4002 9.25522 18.4003C8.77524 18.4003 2.77569 6.28098 2.89559 6.16098C2.98999 6.0665 3.67952 6.12079 4.02714 6.14816C4.12103 6.15555 4.18998 6.16098 4.21552 6.16098C4.26912 6.16098 4.32572 6.37509 4.40263 6.666C4.49801 7.02681 4.62462 7.50575 4.81548 7.84088C5.34021 8.76226 5.81905 9.22724 6.73537 9.76077C7.61981 10.2757 8.23185 10.4684 9.25522 10.4807C10.3237 10.4936 10.9719 10.299 11.8951 9.76077C12.9843 9.12568 13.7335 8.58012 14.0549 7.36091C14.0584 7.3477 14.0619 7.33455 14.0653 7.32148C14.2394 6.66198 14.3679 6.17509 14.0549 5.56102C13.7008 4.86616 12.9751 4.48108 12.375 4.48108M10.0952 18.7602C9.9546 18.9945 9.73519 19.3602 9.73519 19.3602M10.0952 18.7602L9.73519 19.3602M9.73519 19.3602C9.73519 19.3602 9.46478 19.6002 9.25522 19.6002C9.04565 19.6002 8.89533 19.4802 8.77524 19.3602C8.65516 19.2402 8.41527 18.7602 8.41527 18.7602C8.41527 18.7602 1.09551 6.88093 0.975707 6.40097C0.855901 5.92101 0.863921 5.61099 1.0957 5.20104C1.32633 4.79312 2.05564 4.48108 2.05564 4.48108H4.21552C4.21552 4.48108 5.10853 2.0823 6.37539 1.24127C7.3514 0.593325 8.08378 0.414288 9.25522 0.40132C9.91788 0.393984 10.3259 0.407005 10.9351 0.641306C11.5443 0.875607 11.9135 1.13973 12.375 1.60125C12.855 2.08122 13.335 2.80118 13.335 2.80118C13.4835 3.08978 13.455 3.28115 13.335 3.40114C13.215 3.52114 12.975 3.52114 12.615 3.28115C12.5053 3.20799 12.3607 3.06564 12.186 2.89358C11.7875 2.5012 11.2322 1.95432 10.5751 1.72124C10.0814 1.54608 9.77912 1.47873 9.25522 1.48126C8.36612 1.48555 7.81141 1.67418 7.09535 2.20121C6.24725 2.82543 5.65543 4.48108 5.65543 4.48108M5.65543 4.48108C5.65543 4.48108 11.775 4.48108 12.375 4.48108M5.65543 4.48108H12.375M5.65543 6.16098H12.255C12.255 6.16098 12.5425 6.16099 12.615 6.52096C12.6875 6.88093 12.1528 7.50365 11.6551 7.96087C10.9117 8.64377 10.2641 8.88879 9.25522 8.92082C8.1588 8.95562 7.39867 8.72885 6.61537 7.96087C6.04655 7.40316 5.65543 6.16098 5.65543 6.16098Z" stroke="black" stroke-width="0.239986"/>
</svg>
