<svg width="24" height="24" viewBox="0 0 24 24" fill="none" xmlns="http://www.w3.org/2000/svg">
<g clip-path="url(#clip0_4630_23030)">
<path d="M19.4958 15.7265C18.8114 15.0234 16.8661 13.7062 15.5911 13.7062C15.2958 13.7062 15.038 13.7718 14.827 13.9078C14.2036 14.3062 13.7067 14.6156 13.4677 14.6156C13.3364 14.6156 13.1958 14.4984 12.8864 14.2312L12.8349 14.1843C11.977 13.439 11.7942 13.2468 11.4614 12.9L11.377 12.8109C11.3161 12.75 11.2645 12.6937 11.213 12.6421C10.9224 12.3421 10.7114 12.1265 9.96611 11.2828L9.93329 11.2453C9.57704 10.8421 9.34267 10.5796 9.32861 10.3875C9.31454 10.2 9.47861 9.89526 9.89579 9.32808C10.402 8.6437 10.4208 7.79995 9.95673 6.82026C9.58642 6.04683 8.98173 5.3062 8.44736 4.65464L8.40048 4.59839C7.94111 4.03589 7.40673 3.75464 6.81142 3.75464C6.15048 3.75464 5.60204 4.11089 5.31142 4.29839C5.28798 4.31245 5.26454 4.3312 5.24111 4.34526C4.58954 4.75776 4.11611 5.32495 3.93798 5.90151C3.67079 6.7687 3.49267 7.8937 4.77236 10.2328C5.87861 12.2578 6.88173 13.6171 8.47548 15.2531C9.97548 16.7906 10.6411 17.2875 12.1317 18.3656C13.7911 19.5656 15.3849 20.2546 16.5005 20.2546C17.5364 20.2546 18.352 20.2546 19.5145 18.8531C20.7333 17.3812 20.227 16.4812 19.4958 15.7265ZM18.9567 18.3468C18.0192 19.4812 17.4802 19.4812 16.5052 19.4812C15.5536 19.4812 14.077 18.825 12.5583 17.7328C11.1052 16.6828 10.4583 16.2 9.00048 14.7046C7.45829 13.125 6.48798 11.8078 5.41923 9.85308C4.28954 7.78589 4.41611 6.8812 4.64579 6.13589C4.76767 5.73745 5.13329 5.31089 5.63017 5.00151C5.65361 4.98745 5.67704 4.9687 5.70517 4.95464C5.95361 4.79526 6.36611 4.52808 6.8161 4.52808C7.1911 4.52808 7.52392 4.71558 7.84267 5.10464L7.88954 5.16089C9.08486 6.62339 10.0177 7.91714 9.31454 8.87339C8.81767 9.5437 8.55517 9.99839 8.59735 10.4671C8.63485 10.9218 8.93954 11.264 9.39892 11.7796L9.43173 11.8171C10.1864 12.6703 10.402 12.8953 10.702 13.2C10.7536 13.2515 10.8052 13.3078 10.8661 13.3687L10.9505 13.4578C11.2974 13.8187 11.4895 14.0156 12.3708 14.789L12.4224 14.8359C12.7974 15.164 13.0739 15.4031 13.477 15.4031C13.8942 15.4031 14.3536 15.1406 15.2255 14.5828C15.3145 14.5265 15.4411 14.4937 15.6005 14.4937C16.6177 14.4937 18.3708 15.6562 18.9849 16.289C19.5474 16.8609 19.8286 17.2921 18.9567 18.3468Z" fill="white"/>
</g>
<defs>
<clipPath id="clip0_4630_23030">
<rect width="24" height="24" fill="white"/>
</clipPath>
</defs>
</svg>
