<svg width="24" height="18" viewBox="0 0 24 18" fill="none" xmlns="http://www.w3.org/2000/svg">
<path d="M21.84 0.599976H1.68C1.23444 0.599976 0.807122 0.776975 0.492061 1.09204C0.176999 1.4071 0 1.83441 0 2.27998V15.72C0 16.1655 0.176999 16.5929 0.492061 16.9079C0.807122 17.223 1.23444 17.4 1.68 17.4H21.84C22.2856 17.4 22.7129 17.223 23.0279 16.9079C23.343 16.5929 23.52 16.1655 23.52 15.72V2.27998C23.52 1.83441 23.343 1.4071 23.0279 1.09204C22.7129 0.776975 22.2856 0.599976 21.84 0.599976ZM19.992 2.27998L11.76 7.97517L3.528 2.27998H19.992ZM1.68 15.72V3.04438L11.2812 9.68878C11.4218 9.78632 11.5889 9.83859 11.76 9.83859C11.9311 9.83859 12.0982 9.78632 12.2388 9.68878L21.84 3.04438V15.72H1.68Z" fill="white"/>
</svg>
